<svg width="37" height="36" viewBox="0 0 37 36" fill="none" xmlns="http://www.w3.org/2000/svg">
<path d="M14.4917 16.35H11.8708V13.65H14.3375C14.4917 13.65 14.8 13.65 14.9542 13.65C15.1083 13.65 15.4167 13.8 15.5708 13.8C15.725 13.95 15.8792 14.1 16.0333 14.25C16.1875 14.4 16.1875 14.7 16.1875 14.85C16.1875 15.3 16.0333 15.75 15.725 15.9C15.2625 16.2 14.9542 16.35 14.4917 16.35Z" fill="white"/>
<path d="M16.0333 18.45C16.3417 18.75 16.4958 19.2 16.4958 19.65C16.4958 19.95 16.4958 20.25 16.3417 20.4C16.1875 20.55 16.0333 20.7 15.8792 20.85C15.725 21 15.5708 21 15.4167 21.15C15.1083 21.15 14.9542 21.3 14.6458 21.3H11.8708V18H14.6458C15.2625 18 15.725 18.15 16.0333 18.45Z" fill="white"/>
<path d="M25.4375 16.8C25.1292 16.5 24.6667 16.35 24.05 16.35C23.7417 16.35 23.4333 16.35 23.125 16.5C22.9708 16.65 22.6625 16.8 22.5083 16.95C22.3542 17.1 22.2 17.25 22.2 17.55C22.2 17.7 22.0458 17.85 22.0458 18.15H25.9C25.9 17.55 25.7458 17.1 25.4375 16.8ZM25.4375 16.8C25.1292 16.5 24.6667 16.35 24.05 16.35C23.7417 16.35 23.4333 16.35 23.125 16.5C22.9708 16.65 22.6625 16.8 22.5083 16.95C22.3542 17.1 22.2 17.25 22.2 17.55C22.2 17.7 22.0458 17.85 22.0458 18.15H25.9C25.9 17.55 25.7458 17.1 25.4375 16.8ZM18.5 4.5C10.7917 4.5 4.625 10.5 4.625 18C4.625 25.5 10.7917 31.5 18.5 31.5C26.2083 31.5 32.375 25.5 32.375 18C32.375 10.5 26.2083 4.5 18.5 4.5ZM21.7375 12.45H26.5167V13.65H21.7375V12.45ZM18.8083 21.3C18.6542 21.75 18.3458 22.05 17.8833 22.35C17.4208 22.65 17.1125 22.8 16.4958 22.95C16.0333 23.1 15.4167 23.1 14.9542 23.1H9.25V11.7H14.8C15.4167 11.7 15.8792 11.7 16.3417 11.85C16.8042 12 17.2667 12.15 17.575 12.3C17.8833 12.45 18.1917 12.75 18.3458 13.2C18.5 13.65 18.5 14.1 18.5 14.55C18.5 15.15 18.3458 15.6 18.0375 16.05C17.7292 16.35 17.4208 16.8 16.8042 16.95C17.575 17.1 18.0375 17.55 18.3458 18C18.6542 18.45 18.9625 19.2 18.9625 19.8C19.1167 20.4 18.9625 20.85 18.8083 21.3ZM22.8167 21.15C23.125 21.45 23.7417 21.6 24.3583 21.6C24.8208 21.6 25.2833 21.45 25.5917 21.3C25.9 21.15 26.2083 20.85 26.2083 20.55H28.2125C27.9042 21.6 27.4417 22.2 26.6708 22.65C26.0542 23.1 25.1292 23.25 24.2042 23.25C23.5875 23.25 22.9708 23.1 22.3542 22.95C21.7375 22.8 21.275 22.5 20.9667 22.05C20.6583 21.75 20.35 21.15 20.0417 20.7C19.8875 20.25 19.7333 19.65 19.7333 18.9C19.7333 18.3 19.8875 17.7 20.0417 17.1C20.1958 16.5 20.5042 16.05 20.9667 15.75C21.4292 15.45 21.8917 15 22.3542 14.85C22.9708 14.55 23.4333 14.55 24.2042 14.55C24.975 14.55 25.5917 14.7 26.0542 15C26.6708 15.3 26.9792 15.6 27.4417 16.05C27.75 16.5 28.0583 17.1 28.2125 17.7C28.3667 18.3 28.3667 18.9 28.3667 19.5H22.2C22.2 20.25 22.3542 20.85 22.8167 21.15ZM24.2042 16.35C23.8958 16.35 23.5875 16.35 23.2792 16.5C23.125 16.65 22.8167 16.8 22.6625 16.95C22.5083 17.1 22.3542 17.25 22.3542 17.55C22.3542 17.7 22.2 17.85 22.2 18.15H26.0542C26.0542 17.55 25.7458 17.1 25.5917 16.8C25.4375 16.5 24.6667 16.35 24.2042 16.35Z" fill="white"/>
</svg>
