<svg id="Capa_1" data-name="Capa 1" xmlns="http://www.w3.org/2000/svg" xmlns:xlink="http://www.w3.org/1999/xlink" viewBox="0 0 24 24"><defs><style>.cls-1{fill:url(#Degradado_sin_nombre_14);}</style><linearGradient id="Degradado_sin_nombre_14" x1="6.39" y1="11.95" x2="51.78" y2="12.38" gradientUnits="userSpaceOnUse"><stop offset="0" stop-color="#fdc830"/><stop offset="1" stop-color="#f37335"/></linearGradient></defs><circle cx="11.98" cy="11.98" r="11.89"/><path d="M12,23.49A11.52,11.52,0,1,1,23.49,12,11.53,11.53,0,0,1,12,23.49Z"/><path class="cls-1" d="M7.22,9.32,7,9.06a1.49,1.49,0,0,1-.32-.89A1.53,1.53,0,0,1,8.18,6.65h2.26a1.66,1.66,0,0,0-.2.79h0a1.58,1.58,0,0,0,.53,1.18l6.12,6.1.14.16,0,0h0l0,0a1.74,1.74,0,0,1,.11.18h0a1.53,1.53,0,0,1,.2.75,1.58,1.58,0,0,1-.21.74,1.5,1.5,0,0,1-1.29.75H13.62a1.64,1.64,0,0,0,.19-.78v0a1.67,1.67,0,0,0-.4-1h0Zm8.67,8.91a2.39,2.39,0,0,0,2.38-2.37v-.09h0v-.11h0a2.24,2.24,0,0,0-.18-.72l0,0v0h0l0,0a2.55,2.55,0,0,0-.24-.39h0a1.24,1.24,0,0,0-.18-.22L11.28,7.91a.76.76,0,0,1-.15-.4.68.68,0,0,1,.08-.42.74.74,0,0,1,.29-.32.84.84,0,0,1,.41-.11h4.54l-1.78,1.7a.87.87,0,0,0-.26.61.84.84,0,0,0,.24.62h0l4-3.8H8.13a2.38,2.38,0,0,0-1.27.37A2.34,2.34,0,0,0,5.77,8.42a2.47,2.47,0,0,0,.52,1.22,3.34,3.34,0,0,0,.33.32h0L12,15.32l.75.75a.75.75,0,0,1,.18.43.8.8,0,0,1-.1.46.92.92,0,0,1-.3.29.87.87,0,0,1-.41.11H7.55l1.73-1.66a.83.83,0,0,0,.19-.27,1,1,0,0,0,.08-.34.78.78,0,0,0-.07-.33.75.75,0,0,0-.18-.28h0L5.38,18.22H15.89Z"/></svg>