<svg width="36" height="36" viewBox="0 0 36 36" fill="none" xmlns="http://www.w3.org/2000/svg">
<path fill-rule="evenodd" clip-rule="evenodd" d="M18 4.79999C10.5 4.79999 4.5 10.8 4.5 18.3C4.5 24.3 8.4 29.25 13.8 31.05C14.55 31.2 14.7 30.75 14.7 30.45C14.7 30.15 14.7 29.25 14.7 28.2C10.95 28.95 10.2 26.4 10.2 26.4C9.6 24.9 8.7 24.45 8.7 24.45C7.5 23.55 8.85 23.7 8.85 23.7C10.2 23.85 10.95 25.05 10.95 25.05C12.15 27.15 14.1 26.55 14.85 26.1C15 25.2 15.3 24.6 15.75 24.3C12.75 24 9.6 22.8 9.6 17.7C9.6 16.2 10.2 15 10.95 14.1C10.65 13.65 10.2 12.3 10.95 10.5C10.95 10.5 12.15 10.2 14.7 11.85C15.75 11.55 16.95 11.4 18.15 11.4C19.35 11.4 20.4 11.55 21.6 11.85C24 10.05 25.05 10.5 25.05 10.5C25.8 12.3 25.35 13.8 25.2 14.1C26.1 15 26.55 16.2 26.55 17.7C26.55 22.95 23.4 24 20.4 24.3C20.85 24.75 21.3 25.5 21.3 26.85C21.3 28.65 21.3 30.15 21.3 30.6C21.3 30.9 21.6 31.35 22.2 31.2C27.6 29.4 31.35 24.3 31.35 18.45C31.5 10.95 25.5 4.79999 18 4.79999Z" fill="white"/>
</svg>
