<?xml version="1.0" encoding="utf-8"?>
<!-- Generator: Adobe Illustrator 25.2.3, SVG Export Plug-In . SVG Version: 6.00 Build 0)  -->
<svg version="1.1" id="Capa_1" xmlns="http://www.w3.org/2000/svg" xmlns:xlink="http://www.w3.org/1999/xlink" x="0px" y="0px"
	 viewBox="0 0 36 36" style="enable-background:new 0 0 36 36;" xml:space="preserve">
<style type="text/css">
	.st0{fill:none;}
	.st1{fill:#FFFFFF;}
</style>
<g>
	<rect x="9" y="15" class="st0" width="3.9" height="11.8"/>
	<path class="st0" d="M11,9.3c-1.3,0-2.2,0.9-2.2,2c0,1.1,0.9,2,2.2,2h0c1.4,0,2.2-0.9,2.2-2C13.1,10.2,12.3,9.3,11,9.3z"/>
	<path class="st0" d="M22.5,14.7c-2.1,0-3,1.1-3.5,2V15h-3.9c0,1.1,0,11.8,0,11.8H19v-6.6c0-0.4,0-0.7,0.1-1c0.3-0.7,0.9-1.4,2-1.4
		c1.4,0,2,1.1,2,2.7v6.3H27V20C27,16.4,25.1,14.7,22.5,14.7z"/>
	<path class="st1" d="M29.1,4.9H7C5.9,4.9,5,5.8,5,6.8v22.4c0,1,0.9,1.9,1.9,1.9h22.1c1.1,0,1.9-0.8,1.9-1.9V6.8
		C31,5.8,30.1,4.9,29.1,4.9z M12.9,26.8H9V15h3.9V26.8z M10.9,13.4L10.9,13.4c-1.3,0-2.2-0.9-2.2-2c0-1.2,0.9-2,2.2-2
		c1.3,0,2.2,0.9,2.2,2C13.2,12.5,12.3,13.4,10.9,13.4z M27,26.8h-3.9v-6.3c0-1.6-0.6-2.7-2-2.7c-1.1,0-1.7,0.7-2,1.4
		c-0.1,0.2-0.1,0.6-0.1,1v6.6h-3.9c0,0,0-10.7,0-11.8H19v1.7c0.5-0.8,1.5-2,3.5-2c2.6,0,4.5,1.7,4.5,5.3V26.8z"/>
</g>
<g>
	<rect x="9" y="15" class="st0" width="3.9" height="11.8"/>
	<path class="st0" d="M11,9.3c-1.3,0-2.2,0.9-2.2,2c0,1.1,0.9,2,2.2,2h0c1.4,0,2.2-0.9,2.2-2C13.1,10.2,12.3,9.3,11,9.3z"/>
	<path class="st0" d="M22.5,14.7c-2.1,0-3,1.1-3.5,2V15h-3.9c0,1.1,0,11.8,0,11.8H19v-6.6c0-0.4,0-0.7,0.1-1c0.3-0.7,0.9-1.4,2-1.4
		c1.4,0,2,1.1,2,2.7v6.3H27V20C27,16.4,25.1,14.7,22.5,14.7z"/>
	<path class="st1" d="M29.1,4.9H7C5.9,4.9,5,5.8,5,6.8v22.4c0,1,0.9,1.9,1.9,1.9h22.1c1.1,0,1.9-0.8,1.9-1.9V6.8
		C31,5.8,30.1,4.9,29.1,4.9z M12.9,26.8H9V15h3.9V26.8z M10.9,13.4L10.9,13.4c-1.3,0-2.2-0.9-2.2-2c0-1.2,0.9-2,2.2-2
		c1.3,0,2.2,0.9,2.2,2C13.2,12.5,12.3,13.4,10.9,13.4z M27,26.8h-3.9v-6.3c0-1.6-0.6-2.7-2-2.7c-1.1,0-1.7,0.7-2,1.4
		c-0.1,0.2-0.1,0.6-0.1,1v6.6h-3.9c0,0,0-10.7,0-11.8H19v1.7c0.5-0.8,1.5-2,3.5-2c2.6,0,4.5,1.7,4.5,5.3V26.8z"/>
</g>
</svg>
