<svg id="Capa_1" data-name="Capa 1" xmlns="http://www.w3.org/2000/svg" viewBox="0 0 36 36"><defs><style>.cls-1{fill:#fff;}</style></defs><path class="cls-1" d="M29.06,4.8H7A1.91,1.91,0,0,0,5,6.67V29.05A1.9,1.9,0,0,0,7,30.91H29.06A1.89,1.89,0,0,0,31,29.05V6.67A1.9,1.9,0,0,0,29.06,4.8ZM12.89,26.66H9V14.87h3.91Zm-2-13.4h0A2,2,0,1,1,11,9.19a2,2,0,1,1,0,4.07ZM27,26.66H23.11V20.35c0-1.58-.57-2.66-2-2.66a2.15,2.15,0,0,0-2,1.43,2.73,2.73,0,0,0-.13.95v6.59H15.06s0-10.69,0-11.79H19v1.68a3.88,3.88,0,0,1,3.53-2c2.58,0,4.51,1.69,4.51,5.31Z"/></svg>