<svg width="28" height="28" viewBox="0 0 28 28" fill="none" xmlns="http://www.w3.org/2000/svg">
<path d="M4.2365 8.52174L3.69679 7.96986C3.28804 7.45082 3.06005 6.81244 3.04752 6.15189C3.04697 5.73844 3.12828 5.32896 3.28674 4.94708C3.4452 4.5652 3.67769 4.21847 3.9708 3.92686C4.26391 3.63526 4.61184 3.40457 4.99454 3.24808C5.37723 3.09159 5.78712 3.0124 6.20056 3.01508H10.8145C10.548 3.51464 10.4087 4.0721 10.4087 4.63827C10.4087 4.86957 10.3803 5.93276 11.4759 7.07305L23.9826 19.6C24.08 19.7055 24.1733 19.811 24.2626 19.9165L24.3032 19.9652L24.3275 19.9936L24.364 20.0383C24.4508 20.1488 24.5295 20.2654 24.5994 20.3873C24.8651 20.8533 25.0039 21.3809 25.0017 21.9174C24.9995 22.4538 24.8565 22.9803 24.587 23.4442C24.3175 23.908 23.9309 24.2929 23.4659 24.5605C23.0009 24.828 22.4738 24.9688 21.9374 24.9687H17.3072C17.5745 24.4768 17.7141 23.9256 17.713 23.3658C17.713 23.3415 17.713 23.3171 17.713 23.3049C17.7032 22.5114 17.4161 21.7462 16.9014 21.142L4.2365 8.52174ZM21.9455 26.7826C23.2313 26.774 24.4616 26.2572 25.3678 25.3449C26.274 24.4326 26.7826 23.1989 26.7826 21.913C26.7826 21.8522 26.7826 21.7913 26.7826 21.7264C26.7826 21.6696 26.7826 21.6168 26.7826 21.5641V21.5073C26.7373 20.9951 26.6098 20.4937 26.4052 20.022L26.3768 19.9287C26.3768 19.9287 26.3768 19.8922 26.3484 19.8719V19.8394C26.3365 19.8103 26.323 19.7818 26.3078 19.7542C26.1714 19.4757 26.0069 19.212 25.8168 18.967V18.9386C25.7032 18.7846 25.5812 18.6369 25.4516 18.4962L12.5188 5.60406C12.3125 5.32901 12.2014 4.99426 12.2023 4.65044C12.2023 4.21994 12.3733 3.80708 12.6777 3.50267C12.9821 3.19827 13.395 3.02725 13.8255 3.02725H23.0817L19.4782 6.52116C19.3093 6.68337 19.174 6.87737 19.0803 7.09201C18.9866 7.30665 18.9362 7.5377 18.932 7.77189C18.9279 8.00607 18.97 8.23876 19.0561 8.45659C19.1422 8.67441 19.2705 8.87308 19.4336 9.04117L27.513 1.23769H6.10723C4.81574 1.23769 3.57715 1.75073 2.66393 2.66395C1.75071 3.57717 1.23766 4.81576 1.23766 6.10725C1.23727 6.36278 1.25762 6.61792 1.29853 6.87015C1.43398 7.71755 1.79096 8.5141 2.33332 9.17914C2.53949 9.41278 2.7663 9.62737 3.011 9.8203L14 20.8093L15.538 22.3432C15.7474 22.5985 15.8741 22.9117 15.9009 23.2409C15.9277 23.5701 15.8535 23.8996 15.6881 24.1855C15.5398 24.4358 15.3282 24.6426 15.0746 24.785C14.821 24.9275 14.5343 25.0007 14.2435 24.9971H4.91013L8.42839 21.6046C8.59978 21.4431 8.73743 21.2491 8.83336 21.0339C8.92929 20.8188 8.9816 20.5868 8.98726 20.3513C8.99292 20.1158 8.95182 19.8815 8.86634 19.662C8.78086 19.4425 8.65269 19.2421 8.48926 19.0725L0.486938 26.7826H21.9455Z" fill="white"/>
</svg>
