<?xml version="1.0" encoding="utf-8"?>
<!-- Generator: Adobe Illustrator 25.2.3, SVG Export Plug-In . SVG Version: 6.00 Build 0)  -->
<svg version="1.1" id="Capa_1" xmlns="http://www.w3.org/2000/svg" xmlns:xlink="http://www.w3.org/1999/xlink" x="0px" y="0px"
	 viewBox="0 0 180 52" style="enable-background:new 0 0 180 52;" xml:space="preserve">
<style type="text/css">
	.st0{fill:url(#SVGID_1_);}
	.st1{fill:url(#SVGID_2_);}
	.st2{fill:url(#SVGID_3_);}
	.st3{fill:url(#SVGID_4_);}
	.st4{fill:url(#SVGID_5_);}
	.st5{fill:url(#SVGID_6_);}
	.st6{fill:url(#SVGID_7_);}
	.st7{fill:url(#SVGID_8_);}
	.st8{fill:url(#SVGID_9_);}
	.st9{fill:url(#SVGID_10_);}
	.st10{fill:url(#SVGID_11_);}
	.st11{fill:url(#SVGID_12_);}
</style>
<g>
	<linearGradient id="SVGID_1_" gradientUnits="userSpaceOnUse" x1="12.8403" y1="25.8057" x2="178.778" y2="27.3778">
		<stop  offset="0" style="stop-color:#FDC830"/>
		<stop  offset="1" style="stop-color:#F37335"/>
	</linearGradient>
	<path class="st0" d="M15.9,16.2l-1-1c-0.7-0.9-1.1-2.1-1.2-3.2c-0.1-3.1,2.6-5.6,5.7-5.6h8.3c0,0,0,0,0,0c0,0,0,0,0,0c0,0,0,0,0,0
		c0,0,0,0,0,0c-0.5,0.9-0.7,1.9-0.7,2.9v0c0,0.4,0,2.3,1.9,4.3L51.2,36c0.2,0.2,0.3,0.4,0.5,0.6l0.1,0.1l0,0.1l0.1,0.1
		c0.2,0.2,0.3,0.4,0.4,0.6l0,0c0.5,0.8,0.7,1.8,0.7,2.7c0,1-0.3,1.9-0.7,2.7s-1.2,1.5-2,2c-0.8,0.5-1.8,0.7-2.7,0.7h-8.3
		c0,0,0,0,0,0c0,0,0,0,0,0s0,0,0,0c0,0,0,0,0,0c0.5-0.9,0.7-1.9,0.7-2.9v-0.1c0-1.4-0.6-2.8-1.5-3.9l0,0L15.9,16.2z M47.6,48.8
		c2.3,0,4.5-0.9,6.1-2.5c1.6-1.6,2.5-3.8,2.5-6.1c0-0.1,0-0.2,0-0.3v0c0-0.1,0-0.2,0-0.3v-0.1l0,0c-0.1-0.9-0.3-1.8-0.7-2.7
		l-0.1-0.1c0,0,0-0.1,0-0.1l0-0.1l-0.1-0.1c-0.2-0.5-0.5-1-0.9-1.4l0-0.1c-0.2-0.3-0.4-0.5-0.7-0.8L30.7,11
		c-0.3-0.4-0.5-0.9-0.6-1.5c0-0.5,0.1-1.1,0.3-1.5c0.2-0.5,0.6-0.9,1.1-1.2c0.5-0.3,1-0.4,1.5-0.4l16.6,0c0,0,0,0,0,0c0,0,0,0,0,0
		c0,0,0,0,0,0c0,0,0,0,0,0l-6.5,6.2c-0.6,0.6-1,1.4-1,2.2c0,0.8,0.3,1.7,0.9,2.3c0,0,0,0,0,0c0,0,0,0,0,0L57.6,3.3c0,0,0,0,0,0
		c0,0,0,0,0,0c0,0,0,0,0,0c0,0,0,0,0,0H19.2c-1.6,0-3.3,0.5-4.7,1.3c-1.4,0.9-2.5,2.1-3.2,3.6c-0.7,1.5-1,3.1-0.8,4.8
		c0.2,1.6,0.9,3.2,1.9,4.4c0.4,0.4,0.8,0.8,1.2,1.2l0,0l19.7,19.6l2.7,2.7c0.4,0.5,0.6,1,0.7,1.6c0,0.6-0.1,1.2-0.4,1.7
		c-0.3,0.4-0.6,0.8-1.1,1.1s-1,0.4-1.5,0.4H17.1c0,0,0,0,0,0c0,0,0,0,0,0c0,0,0,0,0,0c0,0,0,0,0,0l6.3-6c0.3-0.3,0.5-0.6,0.7-1
		c0.2-0.4,0.3-0.8,0.3-1.2c0-0.4-0.1-0.8-0.2-1.2c-0.2-0.4-0.4-0.7-0.7-1c0,0,0,0,0,0c0,0,0,0,0,0s0,0,0,0c0,0,0,0,0,0L9.2,48.7
		c0,0,0,0,0,0c0,0,0,0,0,0c0,0,0,0,0,0c0,0,0,0,0,0H47.6z"/>
	<linearGradient id="SVGID_2_" gradientUnits="userSpaceOnUse" x1="12.9544" y1="13.768" x2="178.8921" y2="15.34">
		<stop  offset="0" style="stop-color:#FDC830"/>
		<stop  offset="1" style="stop-color:#F37335"/>
	</linearGradient>
	<path class="st1" d="M70.3,25.3c-2.7,0-4.9-0.8-7.1-2.6l1.9-2.3c1.9,1.4,3.8,2.1,5.8,2.1c2.5,0,4.4-1.2,4.7-3
		c0.4-2.6-2.5-3.4-4.4-4c-4.1-1.2-5.7-3.3-5.1-6.6c0.8-4.5,4.7-5.4,7.8-5.4c2.6,0,4.6,0.6,6.6,2l-1.8,2.3c-1.6-1-3.5-1.5-5.4-1.6
		c-2.2,0-3.7,1.1-4,2.9c-0.4,2.5,2,3.2,3.8,3.8c4.1,1.3,6.7,2.9,5.9,6.9C78.1,23.4,75.2,25.3,70.3,25.3z"/>
	<linearGradient id="SVGID_3_" gradientUnits="userSpaceOnUse" x1="12.9561" y1="13.5888" x2="178.8938" y2="15.1608">
		<stop  offset="0" style="stop-color:#FDC830"/>
		<stop  offset="1" style="stop-color:#F37335"/>
	</linearGradient>
	<polygon class="st2" points="83.2,24.9 86.9,3.8 99.4,3.8 98.9,6.5 89.7,6.5 88.5,12.8 96.8,12.8 96.3,15.5 88,15.5 86.9,22.1 
		96.6,22.1 96.2,24.9 	"/>
	<linearGradient id="SVGID_4_" gradientUnits="userSpaceOnUse" x1="12.8512" y1="24.6568" x2="178.7889" y2="26.2288">
		<stop  offset="0" style="stop-color:#FDC830"/>
		<stop  offset="1" style="stop-color:#F37335"/>
	</linearGradient>
	<path class="st3" d="M116.9,47.5l0.4-2c0-0.1,0-0.1,0.1-0.2l12.5-14.8h-8.2l-0.2,0c-0.2,0-0.3,0-0.5,0c-0.2,0-0.4,0-0.6,0
		c-1.6,0-3.5-0.2-5.3-2c-0.7-0.8-1.9-2.8-2.4-4c-0.8-1.7-2.9-6.9-2.9-7l-0.1-0.2h-3.6l-1.3,7.6h-3.2l3.7-21.1h7.1
		c2.1,0,3.9,0.7,4.9,1.9c1.1,1.3,1.5,3.1,1.1,5.2c-0.5,3-2.1,4.8-5,5.7l-1,0.3l3.9,8.1c1,2,2.9,3,5.2,3l12.1,0l-0.4,1.9
		c0,0.1,0,0.2-0.1,0.2L121,45.1h10l-0.4,2.4H116.9z M106.7,14.6h4c2.6,0,4.2-1.3,4.6-3.7c0.2-1.4,0-2.5-0.7-3.3
		c-0.6-0.7-1.6-1.1-2.9-1.1h-3.7L106.7,14.6z"/>
	<linearGradient id="SVGID_5_" gradientUnits="userSpaceOnUse" x1="12.9598" y1="13.1947" x2="178.8975" y2="14.7668">
		<stop  offset="0" style="stop-color:#FDC830"/>
		<stop  offset="1" style="stop-color:#F37335"/>
	</linearGradient>
	<path class="st4" d="M128.9,25.2h-0.3c-2.1,0-3.9-0.7-5.1-2.1c-1.2-1.4-1.6-3.4-1.3-5.6l1.2-6.9c0.8-4.6,4.2-7.3,9.1-7.3
		c2.4,0,4.6,0.7,6.3,1.9l-2,2.3c-1.4-0.9-3-1.4-4.6-1.4c-0.1,0-0.1,0-0.2,0c-2.8,0-4.9,1.8-5.3,4.7l-1.2,6.7
		c-0.2,1.5,0.1,2.7,0.8,3.6c0.7,0.8,1.7,1.3,3,1.3c1.5,0,3-0.4,4.1-1l0.4-0.2l1-5.6h-4l0.4-2.3h7l-1.6,8.9c0,0.1,0,0.1,0,0.1
		C134.7,24.1,131.8,25.2,128.9,25.2L128.9,25.2z"/>
	<linearGradient id="SVGID_6_" gradientUnits="userSpaceOnUse" x1="12.961" y1="13.0707" x2="178.8987" y2="14.6427">
		<stop  offset="0" style="stop-color:#FDC830"/>
		<stop  offset="1" style="stop-color:#F37335"/>
	</linearGradient>
	<polygon class="st5" points="142.6,24.9 146.3,3.8 149.5,3.8 145.8,24.9 	"/>
	<linearGradient id="SVGID_7_" gradientUnits="userSpaceOnUse" x1="12.9624" y1="12.9182" x2="178.9001" y2="14.4902">
		<stop  offset="0" style="stop-color:#FDC830"/>
		<stop  offset="1" style="stop-color:#F37335"/>
	</linearGradient>
	<path class="st6" d="M160.1,25.3c-2.2,0-4-0.7-5.1-2.1c-1.3-1.5-1.7-3.8-1.3-6.5l1-5.7c0.9-4.9,4.3-7.6,9.5-7.6l0.3,0
		c2.1,0.1,3.9,0.8,4.9,2.1c1.3,1.5,1.7,3.7,1.2,6.3l-1,5.7C168.8,22.5,165.4,25.3,160.1,25.3z M163.5,6.2c-2.9,0-4.9,1.8-5.5,4.9
		l-1.1,5.8c-0.3,1.8,0,3.3,0.8,4.3c0.7,0.8,1.8,1.3,3,1.3c3,0,5-1.8,5.5-5l1-5.9h0c0.3-1.7,0-3.2-0.8-4.2
		C165.9,6.6,164.8,6.2,163.5,6.2z"/>
	<linearGradient id="SVGID_8_" gradientUnits="userSpaceOnUse" x1="12.7316" y1="37.2768" x2="178.6694" y2="38.8488">
		<stop  offset="0" style="stop-color:#FDC830"/>
		<stop  offset="1" style="stop-color:#F37335"/>
	</linearGradient>
	<path class="st7" d="M67,47.8c-2,0-3.6-0.6-4.7-1.9c-1.2-1.4-1.6-3.5-1.1-6l0.9-5.2c0.8-4.4,4-7,8.7-7c2.1,0,3.8,0.6,4.8,1.9
		c1.1,1.3,1.5,3.4,1.1,5.8l-0.9,5.2C75,45.3,71.9,47.8,67,47.8z M64,40.6c-0.2,1.5,0.1,2.7,0.8,3.6c0.7,0.8,1.7,1.2,2.9,1.2
		c2.7,0,4.7-1.7,5.2-4.7l1-5.4c0.3-1.6,0-3-0.7-3.9c-0.7-0.8-1.7-1.2-2.9-1.2c-2.8,0-4.6,1.6-5.1,4.6L64,40.6L64,40.6z"/>
	<linearGradient id="SVGID_9_" gradientUnits="userSpaceOnUse" x1="12.7332" y1="37.1172" x2="178.6709" y2="38.6893">
		<stop  offset="0" style="stop-color:#FDC830"/>
		<stop  offset="1" style="stop-color:#F37335"/>
	</linearGradient>
	<path class="st8" d="M90.4,47.5l-2.9-7.1h-3.4l-1.2,7.1h-2.8l3.4-19.3H90c2,0,3.5,0.6,4.5,1.8c1,1.2,1.4,2.9,1,4.8
		c-0.4,2.7-1.9,4.4-4.5,5.2l-1,0.3l3.4,7.3H90.4z M84.6,38.1h3.7c2.5,0,4-1.2,4.3-3.5c0.2-1.3,0-2.3-0.6-3.1c-0.6-0.7-1.5-1-2.7-1
		h-3.4L84.6,38.1z"/>
	<linearGradient id="SVGID_10_" gradientUnits="userSpaceOnUse" x1="12.735" y1="36.92" x2="178.6728" y2="38.492">
		<stop  offset="0" style="stop-color:#FDC830"/>
		<stop  offset="1" style="stop-color:#F37335"/>
	</linearGradient>
	<path class="st9" d="M104.4,47.8c-2,0-3.6-0.6-4.7-1.9c-1.2-1.4-1.6-3.5-1.1-6l0.9-5.3c0.8-4.4,4-7,8.7-7c2.1,0,3.8,0.6,4.8,1.9
		c1.1,1.4,1.5,3.4,1.1,5.8l-0.9,5.3C112.5,45.3,109.3,47.8,104.4,47.8z M101.4,40.6c-0.2,1.5,0.1,2.7,0.8,3.6
		c0.7,0.8,1.7,1.2,2.9,1.2c2.7,0,4.7-1.7,5.2-4.7l1-5.4c0.3-1.6,0-3-0.7-3.9c-0.7-0.8-1.7-1.2-2.9-1.2c-2.8,0-4.6,1.6-5.1,4.6
		L101.4,40.6L101.4,40.6z"/>
	<linearGradient id="SVGID_11_" gradientUnits="userSpaceOnUse" x1="12.7384" y1="36.5622" x2="178.6761" y2="38.1343">
		<stop  offset="0" style="stop-color:#FDC830"/>
		<stop  offset="1" style="stop-color:#F37335"/>
	</linearGradient>
	<path class="st10" d="M142.1,47.8c-2.2,0-3.9-0.7-4.9-1.9c-1.1-1.3-1.5-3.2-1.1-5.5l1-6c0.7-4.3,3.8-6.7,8.4-6.7
		c1.8,0,3.6,0.6,4.9,1.5l-1.6,1.9c-1.1-0.7-2.4-1-3.7-1c-2.7,0-4.7,1.7-5.1,4.4l-1,6c-0.2,1.5,0,2.7,0.7,3.6
		c0.7,0.8,1.8,1.2,3.2,1.2h0.6l0,0c1.3-0.1,2.6-0.5,3.7-1.2l1,2.1c-1.8,1-3.9,1.5-6,1.5L142.1,47.8z"/>
	<linearGradient id="SVGID_12_" gradientUnits="userSpaceOnUse" x1="12.7399" y1="36.4073" x2="178.6776" y2="37.9794">
		<stop  offset="0" style="stop-color:#FDC830"/>
		<stop  offset="1" style="stop-color:#F37335"/>
	</linearGradient>
	<path class="st11" d="M158.8,47.8c-2,0-3.6-0.6-4.7-1.9c-1.2-1.4-1.6-3.5-1.1-6l0.9-5.3c0.8-4.4,3.8-6.9,8.4-7l0.3,0
		c2.1,0,3.8,0.6,4.8,1.9c1.1,1.4,1.5,3.4,1.1,5.8l-0.9,5.2C166.8,45.3,163.7,47.8,158.8,47.8z M161.9,30.2c-2.8,0-4.6,1.6-5.1,4.6
		l-1,5.4c-0.3,1.7,0,3.1,0.8,4c0.7,0.8,1.7,1.2,2.9,1.2c2.7,0,4.7-1.7,5.2-4.7l0.9-5.1l0.1-0.3c0.3-1.6,0-3-0.7-3.9
		C164.2,30.6,163.2,30.2,161.9,30.2z"/>
</g>
</svg>
