<svg width="37" height="36" viewBox="0 0 37 36" fill="none" xmlns="http://www.w3.org/2000/svg">
<path fill-rule="evenodd" clip-rule="evenodd" d="M28.3667 8.4C25.7458 5.85 22.2 4.5 18.5 4.5C10.9458 4.5 4.625 10.5 4.625 18C4.625 20.4 5.24167 22.65 6.475 24.75L4.625 31.5L12.025 29.7C14.0292 30.75 16.3417 31.35 18.6542 31.35C26.2083 31.35 32.5292 25.35 32.5292 17.85C32.375 14.25 30.9875 10.95 28.3667 8.4ZM18.5 29.1C16.4958 29.1 14.3375 28.5 12.6417 27.6L12.3333 27.3L8.01667 28.35L9.25 24.3L8.94167 23.85C7.8625 22.05 7.24583 19.95 7.24583 17.85C7.24583 11.7 12.3333 6.75 18.8083 6.75C21.8917 6.75 24.8208 7.95 26.9792 10.05C29.1375 12.15 30.3708 15 30.3708 18C30.0625 24 24.8208 29.1 18.5 29.1ZM24.8208 20.7C24.5125 20.55 22.8167 19.65 22.5083 19.65C22.2 19.5 21.8917 19.5 21.7375 19.8C21.5833 20.1 20.8125 20.85 20.6583 21.15C20.5042 21.3 20.1958 21.45 19.8875 21.3C19.5792 21.15 18.5 20.85 17.1125 19.65C16.0333 18.75 15.4167 17.7 15.2625 17.25C15.1083 16.8 15.2625 16.8 15.4167 16.5C15.5708 16.35 15.725 16.05 15.8792 15.9C16.0333 15.75 16.0333 15.6 16.1875 15.3C16.3417 15.15 16.1875 14.85 16.1875 14.7C16.0333 14.55 15.4167 12.9 15.1083 12.3C14.8 11.55 14.4917 11.7 14.3375 11.7C14.1833 11.7 13.875 11.7 13.7208 11.7C13.5667 11.7 13.1042 11.7 12.7958 12.15C12.4875 12.6 11.5625 13.2 11.5625 14.85C11.5625 16.5 12.7958 18.15 12.95 18.3C13.1042 18.45 15.4167 21.9 18.8083 23.4C19.5792 23.7 20.35 24 20.8125 24.15C21.5833 24.45 22.3542 24.3 22.9708 24.3C23.5875 24.15 24.975 23.55 25.2833 22.65C25.5917 21.9 25.5917 21.15 25.4375 21C25.4375 21 25.1292 20.85 24.8208 20.7Z" fill="white"/>
</svg>
