<svg id="Capa_1" data-name="Capa 1" xmlns="http://www.w3.org/2000/svg" viewBox="0 0 69 69"><path d="M10.44,21,9.11,19.64h0a7.47,7.47,0,0,1-1.6-4.48,7.72,7.72,0,0,1,7.77-7.73H26.65s0,0,0,0a8.5,8.5,0,0,0-1,4v0c0,.57-.07,3.19,2.63,6L59.1,48.3q.36.39.69.78l.1.12.06.07.09.11a7.19,7.19,0,0,1,.58.86l0,0a7.55,7.55,0,0,1-6.56,11.29H42.65s0,0,0,0a8.24,8.24,0,0,0,1-3.95c0-.06,0-.12,0-.15a8.38,8.38,0,0,0-2-5.33h0ZM54.08,66A12,12,0,0,0,66,54c0-.15,0-.3,0-.46h0c0-.14,0-.27,0-.4V53a11.81,11.81,0,0,0-.93-3.66L65,49.11s0-.09-.07-.14l0-.08a2,2,0,0,0-.1-.21,11.21,11.21,0,0,0-1.21-1.94l0-.07a13,13,0,0,0-.9-1.09L30.85,13.81h0a3.9,3.9,0,0,1-.78-2.35,4,4,0,0,1,4-4l22.81,0s0,0,0,0L48,16.07a4.38,4.38,0,0,0-.11,6.21h0L67.8,3.05s0,0,0,0H15.05a12,12,0,0,0-12,12,11.63,11.63,0,0,0,.15,1.88,12,12,0,0,0,2.55,5.69A12.78,12.78,0,0,0,7.42,24.2h0L34.5,51.28l3.79,3.78h0a4,4,0,0,1,.37,4.54,4.08,4.08,0,0,1-3.56,2h-23s0,0,0,0l8.67-8.36A4.39,4.39,0,0,0,20.92,47h0L1.2,66s0,0,0,0Z"/></svg>